<svg width="60" height="50" viewBox="0 0 60 50" fill="none" xmlns="http://www.w3.org/2000/svg">
<path d="M30.1274 24.4654V46.6934H33.0551V31.8649L40.256 39.5158H41.5769L48.7777 31.8649V46.6934H51.7103V24.4604L40.9411 35.9762L30.1274 24.4654Z" fill="#FFC629"/>
<path d="M49.5565 18.254L40.9411 27.4627L32.2961 18.254H18.3577V21.0886H30.9604L40.9411 31.7171L50.8873 21.0886H54.6676V46.6935H57.6002V18.254H49.5565Z" fill="#FFC629"/>
<path d="M18.9787 35.784C10.8414 35.784 4.2221 29.1191 4.2221 20.9308C4.2221 12.7426 10.8414 6.07762 18.9787 6.07762C22.557 6.07762 25.9726 7.384 28.8559 9.85378L29.334 10.2629L31.0738 8.015L30.6499 7.6502C27.328 4.76632 23.2913 3.24304 18.9738 3.24304C9.22968 3.24304 1.29443 11.1799 1.29443 20.9308C1.29443 30.6818 9.22968 38.6186 18.9787 38.6186C20.7728 38.6186 22.5372 38.3475 24.2377 37.8151V46.6886H27.1653V33.3143L26.2338 33.8417C24.0011 35.1087 21.4924 35.7791 18.9787 35.7791V35.784Z" fill="#FFC629"/>
<path d="M18.3578 26.6542H24.3413V28.4831C22.7936 29.6515 21.0341 30.2233 18.9788 30.2233C14.0057 30.2233 10.112 26.1415 10.112 20.9357C10.112 15.73 14.0057 11.6482 18.9788 11.6482C21.3742 11.6482 23.3407 12.4024 25.5537 14.1771L26.022 14.5518L27.7519 12.3137L27.3281 11.9538C24.9278 9.89813 22.0396 8.8136 18.9739 8.8136C12.468 8.8136 7.17944 14.2511 7.17944 20.9407C7.17944 27.6303 12.4729 33.0678 18.9739 33.0678C21.7685 33.0678 24.6764 31.9586 26.9486 30.0212L27.1704 29.8339V23.8246H18.3529V26.6591L18.3578 26.6542Z" fill="#FFC629"/>
<path d="M16.5884 44.0807H17.7072V46.6885H18.0818V44.0807H19.2006V43.7061H16.5884V44.0807Z" fill="#FFC629"/>
<path d="M21.0588 45.9786L20.1125 43.7061H19.5703V46.6885H19.9498V44.2089L20.9849 46.6885H21.1376L22.1727 44.2089V46.6885H22.5522V43.7061H22.01L21.0588 45.9786Z" fill="#FFC629"/>
</svg>
